<svg width="256" height="256" viewBox="0 0 256 256" fill="none" xmlns="http://www.w3.org/2000/svg">
<g clip-path="url(#clip0_2676_5693)">
<rect width="256" height="256" fill="white"/>
<g opacity="0.2" filter="url(#filter0_f_2676_5693)">
<ellipse cx="58.9237" cy="322.958" rx="88.018" ry="507.692" transform="rotate(37.9559 58.9237 322.958)" fill="#B352E3"/>
</g>
<mask id="path-2-outside-1_2676_5693" maskUnits="userSpaceOnUse" x="64.9375" y="28.4297" width="122" height="198" fill="black">
<rect fill="white" x="64.9375" y="28.4297" width="122" height="198"/>
<path d="M186.397 94.2324L186.136 91.1121L171.836 53.5198C171.67 53.0821 168.964 51.996 168.964 51.996C168.964 51.996 152.605 40.0815 145.3 34.7879C145.452 34.3632 145.539 33.9081 145.539 33.4305C145.539 31.2209 143.766 29.4297 141.581 29.4297C139.622 29.4297 137.999 30.8712 137.685 32.7621C126.703 33.9974 97.7906 37.3039 97.7906 37.3039C97.7899 37.3039 82.1079 50.9625 74.7808 57.3441C74.1813 57.083 73.5209 56.9369 72.8266 56.9369C70.0951 56.9369 67.8807 59.1759 67.8807 61.9377C67.8807 63.7007 68.7855 65.2481 70.1498 66.1387L65.9375 103.186L66.437 106.574L90.1755 151.678C90.3279 151.974 95.4355 166.995 97.7856 173.915C95.6224 174.811 94.0977 176.958 94.0977 179.467C94.0977 182.782 96.7554 185.469 100.033 185.469C102.623 185.469 104.82 183.788 105.63 181.448L146.604 180.241C146.961 182.081 148.563 183.469 150.486 183.469C152.672 183.469 154.443 181.677 154.443 179.468C154.443 178.122 153.784 176.934 152.777 176.209L160.57 155.947C160.671 155.955 160.771 155.962 160.873 155.962C163.059 155.962 164.831 154.17 164.831 151.961C164.831 150.937 164.447 150.006 163.821 149.298C167.285 143.554 174.233 132.031 174.238 132.021C174.252 131.994 184.506 100.113 186.397 94.2324ZM148.565 175.971L129.293 160.675L147.027 145.337L149.113 175.719C148.924 175.79 148.74 175.872 148.565 175.971ZM146.837 177.915L105.95 179.119C105.919 178.576 105.82 178.052 105.655 177.557L127.445 162.155L146.965 177.647C146.92 177.735 146.876 177.824 146.837 177.915ZM102.264 173.909L112.769 142.452C112.81 142.454 112.85 142.459 112.893 142.459C113.288 142.459 113.669 142.398 114.031 142.289L125.912 160.411L104.512 175.538C103.903 174.83 103.137 174.268 102.264 173.909ZM77.3476 63.9615L91.6555 67.4207L86.4562 82.2047C85.8608 82.2294 85.2895 82.3512 84.7534 82.5579L75.6697 66.0259C76.3988 65.5066 76.9823 64.7949 77.3476 63.9615ZM109.728 71.7909C109.785 72.3194 109.896 72.8287 110.052 73.3163L91.1262 84.4789C90.5003 83.6521 89.6806 83.008 88.7455 82.6158L93.8986 67.9639L109.728 71.7909ZM140.399 37.2494C140.648 37.3279 140.907 37.3823 141.173 37.4102L145.291 58.9773L122.233 67.4964C121.938 66.9049 121.568 66.3651 121.14 65.8872L140.399 37.2494ZM157.348 89.0543L161.495 106.175C161.198 106.361 160.913 106.569 160.648 106.802L135.46 98.1749L153.866 87.5409C154.751 88.4612 155.982 89.0369 157.348 89.0543ZM92.1629 86.551L111.09 75.388C112.311 77.0915 114.213 78.1915 116.355 78.1915C117.286 78.1915 118.172 77.9832 118.977 77.61L130.342 96.7616L92.4236 88.6432C92.4255 88.5763 92.4327 88.5114 92.4327 88.4442C92.4331 87.7843 92.3372 87.1487 92.1629 86.551ZM120.862 76.2805C121.472 75.6728 121.976 74.9448 122.345 74.1292L152.465 84.0353C152.465 84.0431 152.464 84.0496 152.464 84.057C152.464 84.5774 152.543 85.0793 152.688 85.5511L133.084 96.8783L120.862 76.2805ZM158.289 113.914L138.012 122.335L134.144 100.173L159.11 108.723C158.506 109.813 158.152 111.085 158.152 112.451C158.153 112.952 158.2 113.441 158.289 113.914ZM153.011 81.7774L122.969 71.8956C123.007 71.5819 123.033 71.2647 123.033 70.9397C123.033 70.5186 122.993 70.1082 122.93 69.7068L145.73 61.2828L145.898 62.1575C145.916 62.2514 145.945 62.3426 145.985 62.4284L154.21 80.2481C153.717 80.6716 153.309 81.1909 153.011 81.7774ZM82.8687 93.1235C83.884 94.0987 85.2146 94.6953 86.6766 94.6953C87.4654 94.6953 88.217 94.5222 88.9018 94.2104L97.8988 108.709C97.2277 109.405 96.6885 110.248 96.3297 111.195L69.3725 104.381L82.8687 93.1235ZM102.505 106.699C101.526 106.699 100.598 106.934 99.7594 107.345L90.762 92.8465C91.2668 92.294 91.6769 91.6395 91.9642 90.9143L129.265 98.9009L107.996 109.829C106.791 107.939 104.782 106.699 102.505 106.699ZM108.438 117.269L132.412 125.715L115.594 135.539C114.886 134.87 113.938 134.456 112.892 134.456C112.744 134.456 112.598 134.466 112.455 134.482L106.285 119.926C107.191 119.249 107.931 118.336 108.438 117.269ZM116.743 137.546L134.845 126.972L146.526 142.72L127.725 158.98L115.941 141.008C116.509 140.316 116.85 139.426 116.85 138.456C116.85 138.143 116.811 137.839 116.743 137.546ZM135.528 124.362L135.529 124.36L109.099 115.047C109.149 114.688 109.183 114.324 109.183 113.951C109.183 113.258 109.088 112.59 108.921 111.955L131.819 100.189L136.002 124.155C136.062 124.501 137.246 125.16 137.567 125.026L159.066 116.098C159.567 117.029 160.248 117.831 161.065 118.438L147.972 140.957C147.972 140.957 135.737 124.435 135.528 124.362ZM169.091 106.868C167.935 105.826 166.45 105.198 164.831 105.198C164.426 105.198 164.032 105.244 163.647 105.319L159.585 88.5439C160.675 88.003 161.539 87.0714 161.997 85.9266L183.425 93.411L169.091 106.868ZM170.692 56.9686L183.651 91.0367L162.334 83.591C162.208 82.2167 161.533 81.0035 160.532 80.1786L170.692 56.9686ZM158.465 79.1725C158.125 79.0979 157.773 79.0562 157.411 79.0562C157.012 79.0562 156.626 79.1087 156.255 79.1991L148.122 61.5784L147.948 60.6646L168.78 55.6093L158.465 79.1725ZM147.513 58.3858L143.425 36.9693C143.62 36.865 143.803 36.7441 143.977 36.6096L167.243 53.5983L147.513 58.3858ZM137.949 35.0143C138.092 35.3508 138.28 35.663 138.505 35.9439L119.33 64.4549C118.433 63.9684 117.426 63.6883 116.355 63.6883C115.516 63.6883 114.716 63.8637 113.975 64.1713L99.9153 39.3857L137.949 35.0143ZM98.681 41.8677L112.037 65.4139C110.932 66.4331 110.136 67.8333 109.825 69.4298L94.6709 65.7658L95.1768 64.3266C95.2009 64.2586 95.2185 64.1887 95.2299 64.1176L98.681 41.8677ZM92.9811 63.6524L92.4281 65.2242L77.7603 61.6777C77.7042 60.5711 77.2979 59.5576 76.6426 58.7555L96.4344 41.3878L92.9811 63.6524ZM72.3692 66.9153C72.5201 66.9296 72.6722 66.9389 72.8266 66.9389C73.062 66.9389 73.292 66.9165 73.519 66.8844L82.8205 83.8124C81.6562 84.9564 80.9202 86.6051 80.9202 88.4442C80.9202 89.4484 81.1434 90.3938 81.5312 91.2346L68.3549 102.225L72.3692 66.9153ZM89.9038 147.064L69.0863 106.699L95.8501 113.463C95.8402 113.625 95.8272 113.786 95.8272 113.95C95.8272 116.621 97.1605 118.949 99.1399 120.207L89.9038 147.064ZM101.269 121.074C101.67 121.155 102.082 121.203 102.505 121.203C103.101 121.203 103.675 121.109 104.225 120.951L110.347 135.396C109.484 136.129 108.936 137.228 108.936 138.457C108.936 138.737 108.964 139.01 109.018 139.273L91.7315 148.807L101.269 121.074ZM110.118 141.308C110.266 141.455 110.427 141.589 110.596 141.711L100.03 173.353L92.5244 151.011L110.118 141.308ZM151.274 173.719L149.322 145.285L157.107 150.735C156.984 151.121 156.916 151.533 156.916 151.961C156.916 153.238 157.511 154.373 158.433 155.106L151.274 173.719ZM161.864 148.092C161.547 148.009 161.216 147.96 160.872 147.96C159.942 147.96 159.089 148.287 158.413 148.83L150.332 143.172L170.33 134.053L161.864 148.092ZM150.609 140.503L163.102 119.448C163.654 119.609 164.232 119.703 164.83 119.703C165.465 119.703 166.077 119.6 166.658 119.421L171.727 130.875L150.609 140.503ZM168.699 118.354C170.397 117.039 171.508 114.888 171.508 112.451C171.508 111.069 171.146 109.783 170.528 108.683L183.153 96.8304L173.069 128.232L168.699 118.354ZM146.661 195.268C146.661 197.981 144.486 200.182 141.802 200.182H109.401C106.718 200.182 104.542 197.982 104.542 195.268C104.542 192.555 106.718 190.354 109.401 190.354H141.802C144.485 190.354 146.661 192.555 146.661 195.268ZM141.802 207.962C141.802 210.05 140.128 211.743 138.063 211.743H113.139C111.075 211.743 109.401 210.05 109.401 207.962C109.401 205.875 111.075 204.183 113.139 204.183H138.063C140.128 204.182 141.802 205.874 141.802 207.962ZM115.881 216.519H135.321C135.321 221.947 130.97 225.57 125.601 225.57C120.233 225.57 115.881 221.947 115.881 216.519Z"/>
</mask>
<path d="M186.397 94.2324L186.136 91.1121L171.836 53.5198C171.67 53.0821 168.964 51.996 168.964 51.996C168.964 51.996 152.605 40.0815 145.3 34.7879C145.452 34.3632 145.539 33.9081 145.539 33.4305C145.539 31.2209 143.766 29.4297 141.581 29.4297C139.622 29.4297 137.999 30.8712 137.685 32.7621C126.703 33.9974 97.7906 37.3039 97.7906 37.3039C97.7899 37.3039 82.1079 50.9625 74.7808 57.3441C74.1813 57.083 73.5209 56.9369 72.8266 56.9369C70.0951 56.9369 67.8807 59.1759 67.8807 61.9377C67.8807 63.7007 68.7855 65.2481 70.1498 66.1387L65.9375 103.186L66.437 106.574L90.1755 151.678C90.3279 151.974 95.4355 166.995 97.7856 173.915C95.6224 174.811 94.0977 176.958 94.0977 179.467C94.0977 182.782 96.7554 185.469 100.033 185.469C102.623 185.469 104.82 183.788 105.63 181.448L146.604 180.241C146.961 182.081 148.563 183.469 150.486 183.469C152.672 183.469 154.443 181.677 154.443 179.468C154.443 178.122 153.784 176.934 152.777 176.209L160.57 155.947C160.671 155.955 160.771 155.962 160.873 155.962C163.059 155.962 164.831 154.17 164.831 151.961C164.831 150.937 164.447 150.006 163.821 149.298C167.285 143.554 174.233 132.031 174.238 132.021C174.252 131.994 184.506 100.113 186.397 94.2324ZM148.565 175.971L129.293 160.675L147.027 145.337L149.113 175.719C148.924 175.79 148.74 175.872 148.565 175.971ZM146.837 177.915L105.95 179.119C105.919 178.576 105.82 178.052 105.655 177.557L127.445 162.155L146.965 177.647C146.92 177.735 146.876 177.824 146.837 177.915ZM102.264 173.909L112.769 142.452C112.81 142.454 112.85 142.459 112.893 142.459C113.288 142.459 113.669 142.398 114.031 142.289L125.912 160.411L104.512 175.538C103.903 174.83 103.137 174.268 102.264 173.909ZM77.3476 63.9615L91.6555 67.4207L86.4562 82.2047C85.8608 82.2294 85.2895 82.3512 84.7534 82.5579L75.6697 66.0259C76.3988 65.5066 76.9823 64.7949 77.3476 63.9615ZM109.728 71.7909C109.785 72.3194 109.896 72.8287 110.052 73.3163L91.1262 84.4789C90.5003 83.6521 89.6806 83.008 88.7455 82.6158L93.8986 67.9639L109.728 71.7909ZM140.399 37.2494C140.648 37.3279 140.907 37.3823 141.173 37.4102L145.291 58.9773L122.233 67.4964C121.938 66.9049 121.568 66.3651 121.14 65.8872L140.399 37.2494ZM157.348 89.0543L161.495 106.175C161.198 106.361 160.913 106.569 160.648 106.802L135.46 98.1749L153.866 87.5409C154.751 88.4612 155.982 89.0369 157.348 89.0543ZM92.1629 86.551L111.09 75.388C112.311 77.0915 114.213 78.1915 116.355 78.1915C117.286 78.1915 118.172 77.9832 118.977 77.61L130.342 96.7616L92.4236 88.6432C92.4255 88.5763 92.4327 88.5114 92.4327 88.4442C92.4331 87.7843 92.3372 87.1487 92.1629 86.551ZM120.862 76.2805C121.472 75.6728 121.976 74.9448 122.345 74.1292L152.465 84.0353C152.465 84.0431 152.464 84.0496 152.464 84.057C152.464 84.5774 152.543 85.0793 152.688 85.5511L133.084 96.8783L120.862 76.2805ZM158.289 113.914L138.012 122.335L134.144 100.173L159.11 108.723C158.506 109.813 158.152 111.085 158.152 112.451C158.153 112.952 158.2 113.441 158.289 113.914ZM153.011 81.7774L122.969 71.8956C123.007 71.5819 123.033 71.2647 123.033 70.9397C123.033 70.5186 122.993 70.1082 122.93 69.7068L145.73 61.2828L145.898 62.1575C145.916 62.2514 145.945 62.3426 145.985 62.4284L154.21 80.2481C153.717 80.6716 153.309 81.1909 153.011 81.7774ZM82.8687 93.1235C83.884 94.0987 85.2146 94.6953 86.6766 94.6953C87.4654 94.6953 88.217 94.5222 88.9018 94.2104L97.8988 108.709C97.2277 109.405 96.6885 110.248 96.3297 111.195L69.3725 104.381L82.8687 93.1235ZM102.505 106.699C101.526 106.699 100.598 106.934 99.7594 107.345L90.762 92.8465C91.2668 92.294 91.6769 91.6395 91.9642 90.9143L129.265 98.9009L107.996 109.829C106.791 107.939 104.782 106.699 102.505 106.699ZM108.438 117.269L132.412 125.715L115.594 135.539C114.886 134.87 113.938 134.456 112.892 134.456C112.744 134.456 112.598 134.466 112.455 134.482L106.285 119.926C107.191 119.249 107.931 118.336 108.438 117.269ZM116.743 137.546L134.845 126.972L146.526 142.72L127.725 158.98L115.941 141.008C116.509 140.316 116.85 139.426 116.85 138.456C116.85 138.143 116.811 137.839 116.743 137.546ZM135.528 124.362L135.529 124.36L109.099 115.047C109.149 114.688 109.183 114.324 109.183 113.951C109.183 113.258 109.088 112.59 108.921 111.955L131.819 100.189L136.002 124.155C136.062 124.501 137.246 125.16 137.567 125.026L159.066 116.098C159.567 117.029 160.248 117.831 161.065 118.438L147.972 140.957C147.972 140.957 135.737 124.435 135.528 124.362ZM169.091 106.868C167.935 105.826 166.45 105.198 164.831 105.198C164.426 105.198 164.032 105.244 163.647 105.319L159.585 88.5439C160.675 88.003 161.539 87.0714 161.997 85.9266L183.425 93.411L169.091 106.868ZM170.692 56.9686L183.651 91.0367L162.334 83.591C162.208 82.2167 161.533 81.0035 160.532 80.1786L170.692 56.9686ZM158.465 79.1725C158.125 79.0979 157.773 79.0562 157.411 79.0562C157.012 79.0562 156.626 79.1087 156.255 79.1991L148.122 61.5784L147.948 60.6646L168.78 55.6093L158.465 79.1725ZM147.513 58.3858L143.425 36.9693C143.62 36.865 143.803 36.7441 143.977 36.6096L167.243 53.5983L147.513 58.3858ZM137.949 35.0143C138.092 35.3508 138.28 35.663 138.505 35.9439L119.33 64.4549C118.433 63.9684 117.426 63.6883 116.355 63.6883C115.516 63.6883 114.716 63.8637 113.975 64.1713L99.9153 39.3857L137.949 35.0143ZM98.681 41.8677L112.037 65.4139C110.932 66.4331 110.136 67.8333 109.825 69.4298L94.6709 65.7658L95.1768 64.3266C95.2009 64.2586 95.2185 64.1887 95.2299 64.1176L98.681 41.8677ZM92.9811 63.6524L92.4281 65.2242L77.7603 61.6777C77.7042 60.5711 77.2979 59.5576 76.6426 58.7555L96.4344 41.3878L92.9811 63.6524ZM72.3692 66.9153C72.5201 66.9296 72.6722 66.9389 72.8266 66.9389C73.062 66.9389 73.292 66.9165 73.519 66.8844L82.8205 83.8124C81.6562 84.9564 80.9202 86.6051 80.9202 88.4442C80.9202 89.4484 81.1434 90.3938 81.5312 91.2346L68.3549 102.225L72.3692 66.9153ZM89.9038 147.064L69.0863 106.699L95.8501 113.463C95.8402 113.625 95.8272 113.786 95.8272 113.95C95.8272 116.621 97.1605 118.949 99.1399 120.207L89.9038 147.064ZM101.269 121.074C101.67 121.155 102.082 121.203 102.505 121.203C103.101 121.203 103.675 121.109 104.225 120.951L110.347 135.396C109.484 136.129 108.936 137.228 108.936 138.457C108.936 138.737 108.964 139.01 109.018 139.273L91.7315 148.807L101.269 121.074ZM110.118 141.308C110.266 141.455 110.427 141.589 110.596 141.711L100.03 173.353L92.5244 151.011L110.118 141.308ZM151.274 173.719L149.322 145.285L157.107 150.735C156.984 151.121 156.916 151.533 156.916 151.961C156.916 153.238 157.511 154.373 158.433 155.106L151.274 173.719ZM161.864 148.092C161.547 148.009 161.216 147.96 160.872 147.96C159.942 147.96 159.089 148.287 158.413 148.83L150.332 143.172L170.33 134.053L161.864 148.092ZM150.609 140.503L163.102 119.448C163.654 119.609 164.232 119.703 164.83 119.703C165.465 119.703 166.077 119.6 166.658 119.421L171.727 130.875L150.609 140.503ZM168.699 118.354C170.397 117.039 171.508 114.888 171.508 112.451C171.508 111.069 171.146 109.783 170.528 108.683L183.153 96.8304L173.069 128.232L168.699 118.354ZM146.661 195.268C146.661 197.981 144.486 200.182 141.802 200.182H109.401C106.718 200.182 104.542 197.982 104.542 195.268C104.542 192.555 106.718 190.354 109.401 190.354H141.802C144.485 190.354 146.661 192.555 146.661 195.268ZM141.802 207.962C141.802 210.05 140.128 211.743 138.063 211.743H113.139C111.075 211.743 109.401 210.05 109.401 207.962C109.401 205.875 111.075 204.183 113.139 204.183H138.063C140.128 204.182 141.802 205.874 141.802 207.962ZM115.881 216.519H135.321C135.321 221.947 130.97 225.57 125.601 225.57C120.233 225.57 115.881 221.947 115.881 216.519Z" fill="#6A44F0"/>
<path d="M186.397 94.2324L186.136 91.1121L171.836 53.5198C171.67 53.0821 168.964 51.996 168.964 51.996C168.964 51.996 152.605 40.0815 145.3 34.7879C145.452 34.3632 145.539 33.9081 145.539 33.4305C145.539 31.2209 143.766 29.4297 141.581 29.4297C139.622 29.4297 137.999 30.8712 137.685 32.7621C126.703 33.9974 97.7906 37.3039 97.7906 37.3039C97.7899 37.3039 82.1079 50.9625 74.7808 57.3441C74.1813 57.083 73.5209 56.9369 72.8266 56.9369C70.0951 56.9369 67.8807 59.1759 67.8807 61.9377C67.8807 63.7007 68.7855 65.2481 70.1498 66.1387L65.9375 103.186L66.437 106.574L90.1755 151.678C90.3279 151.974 95.4355 166.995 97.7856 173.915C95.6224 174.811 94.0977 176.958 94.0977 179.467C94.0977 182.782 96.7554 185.469 100.033 185.469C102.623 185.469 104.82 183.788 105.63 181.448L146.604 180.241C146.961 182.081 148.563 183.469 150.486 183.469C152.672 183.469 154.443 181.677 154.443 179.468C154.443 178.122 153.784 176.934 152.777 176.209L160.57 155.947C160.671 155.955 160.771 155.962 160.873 155.962C163.059 155.962 164.831 154.17 164.831 151.961C164.831 150.937 164.447 150.006 163.821 149.298C167.285 143.554 174.233 132.031 174.238 132.021C174.252 131.994 184.506 100.113 186.397 94.2324ZM148.565 175.971L129.293 160.675L147.027 145.337L149.113 175.719C148.924 175.79 148.74 175.872 148.565 175.971ZM146.837 177.915L105.95 179.119C105.919 178.576 105.82 178.052 105.655 177.557L127.445 162.155L146.965 177.647C146.92 177.735 146.876 177.824 146.837 177.915ZM102.264 173.909L112.769 142.452C112.81 142.454 112.85 142.459 112.893 142.459C113.288 142.459 113.669 142.398 114.031 142.289L125.912 160.411L104.512 175.538C103.903 174.83 103.137 174.268 102.264 173.909ZM77.3476 63.9615L91.6555 67.4207L86.4562 82.2047C85.8608 82.2294 85.2895 82.3512 84.7534 82.5579L75.6697 66.0259C76.3988 65.5066 76.9823 64.7949 77.3476 63.9615ZM109.728 71.7909C109.785 72.3194 109.896 72.8287 110.052 73.3163L91.1262 84.4789C90.5003 83.6521 89.6806 83.008 88.7455 82.6158L93.8986 67.9639L109.728 71.7909ZM140.399 37.2494C140.648 37.3279 140.907 37.3823 141.173 37.4102L145.291 58.9773L122.233 67.4964C121.938 66.9049 121.568 66.3651 121.14 65.8872L140.399 37.2494ZM157.348 89.0543L161.495 106.175C161.198 106.361 160.913 106.569 160.648 106.802L135.46 98.1749L153.866 87.5409C154.751 88.4612 155.982 89.0369 157.348 89.0543ZM92.1629 86.551L111.09 75.388C112.311 77.0915 114.213 78.1915 116.355 78.1915C117.286 78.1915 118.172 77.9832 118.977 77.61L130.342 96.7616L92.4236 88.6432C92.4255 88.5763 92.4327 88.5114 92.4327 88.4442C92.4331 87.7843 92.3372 87.1487 92.1629 86.551ZM120.862 76.2805C121.472 75.6728 121.976 74.9448 122.345 74.1292L152.465 84.0353C152.465 84.0431 152.464 84.0496 152.464 84.057C152.464 84.5774 152.543 85.0793 152.688 85.5511L133.084 96.8783L120.862 76.2805ZM158.289 113.914L138.012 122.335L134.144 100.173L159.11 108.723C158.506 109.813 158.152 111.085 158.152 112.451C158.153 112.952 158.2 113.441 158.289 113.914ZM153.011 81.7774L122.969 71.8956C123.007 71.5819 123.033 71.2647 123.033 70.9397C123.033 70.5186 122.993 70.1082 122.93 69.7068L145.73 61.2828L145.898 62.1575C145.916 62.2514 145.945 62.3426 145.985 62.4284L154.21 80.2481C153.717 80.6716 153.309 81.1909 153.011 81.7774ZM82.8687 93.1235C83.884 94.0987 85.2146 94.6953 86.6766 94.6953C87.4654 94.6953 88.217 94.5222 88.9018 94.2104L97.8988 108.709C97.2277 109.405 96.6885 110.248 96.3297 111.195L69.3725 104.381L82.8687 93.1235ZM102.505 106.699C101.526 106.699 100.598 106.934 99.7594 107.345L90.762 92.8465C91.2668 92.294 91.6769 91.6395 91.9642 90.9143L129.265 98.9009L107.996 109.829C106.791 107.939 104.782 106.699 102.505 106.699ZM108.438 117.269L132.412 125.715L115.594 135.539C114.886 134.87 113.938 134.456 112.892 134.456C112.744 134.456 112.598 134.466 112.455 134.482L106.285 119.926C107.191 119.249 107.931 118.336 108.438 117.269ZM116.743 137.546L134.845 126.972L146.526 142.72L127.725 158.98L115.941 141.008C116.509 140.316 116.85 139.426 116.85 138.456C116.85 138.143 116.811 137.839 116.743 137.546ZM135.528 124.362L135.529 124.36L109.099 115.047C109.149 114.688 109.183 114.324 109.183 113.951C109.183 113.258 109.088 112.59 108.921 111.955L131.819 100.189L136.002 124.155C136.062 124.501 137.246 125.16 137.567 125.026L159.066 116.098C159.567 117.029 160.248 117.831 161.065 118.438L147.972 140.957C147.972 140.957 135.737 124.435 135.528 124.362ZM169.091 106.868C167.935 105.826 166.45 105.198 164.831 105.198C164.426 105.198 164.032 105.244 163.647 105.319L159.585 88.5439C160.675 88.003 161.539 87.0714 161.997 85.9266L183.425 93.411L169.091 106.868ZM170.692 56.9686L183.651 91.0367L162.334 83.591C162.208 82.2167 161.533 81.0035 160.532 80.1786L170.692 56.9686ZM158.465 79.1725C158.125 79.0979 157.773 79.0562 157.411 79.0562C157.012 79.0562 156.626 79.1087 156.255 79.1991L148.122 61.5784L147.948 60.6646L168.78 55.6093L158.465 79.1725ZM147.513 58.3858L143.425 36.9693C143.62 36.865 143.803 36.7441 143.977 36.6096L167.243 53.5983L147.513 58.3858ZM137.949 35.0143C138.092 35.3508 138.28 35.663 138.505 35.9439L119.33 64.4549C118.433 63.9684 117.426 63.6883 116.355 63.6883C115.516 63.6883 114.716 63.8637 113.975 64.1713L99.9153 39.3857L137.949 35.0143ZM98.681 41.8677L112.037 65.4139C110.932 66.4331 110.136 67.8333 109.825 69.4298L94.6709 65.7658L95.1768 64.3266C95.2009 64.2586 95.2185 64.1887 95.2299 64.1176L98.681 41.8677ZM92.9811 63.6524L92.4281 65.2242L77.7603 61.6777C77.7042 60.5711 77.2979 59.5576 76.6426 58.7555L96.4344 41.3878L92.9811 63.6524ZM72.3692 66.9153C72.5201 66.9296 72.6722 66.9389 72.8266 66.9389C73.062 66.9389 73.292 66.9165 73.519 66.8844L82.8205 83.8124C81.6562 84.9564 80.9202 86.6051 80.9202 88.4442C80.9202 89.4484 81.1434 90.3938 81.5312 91.2346L68.3549 102.225L72.3692 66.9153ZM89.9038 147.064L69.0863 106.699L95.8501 113.463C95.8402 113.625 95.8272 113.786 95.8272 113.95C95.8272 116.621 97.1605 118.949 99.1399 120.207L89.9038 147.064ZM101.269 121.074C101.67 121.155 102.082 121.203 102.505 121.203C103.101 121.203 103.675 121.109 104.225 120.951L110.347 135.396C109.484 136.129 108.936 137.228 108.936 138.457C108.936 138.737 108.964 139.01 109.018 139.273L91.7315 148.807L101.269 121.074ZM110.118 141.308C110.266 141.455 110.427 141.589 110.596 141.711L100.03 173.353L92.5244 151.011L110.118 141.308ZM151.274 173.719L149.322 145.285L157.107 150.735C156.984 151.121 156.916 151.533 156.916 151.961C156.916 153.238 157.511 154.373 158.433 155.106L151.274 173.719ZM161.864 148.092C161.547 148.009 161.216 147.96 160.872 147.96C159.942 147.96 159.089 148.287 158.413 148.83L150.332 143.172L170.33 134.053L161.864 148.092ZM150.609 140.503L163.102 119.448C163.654 119.609 164.232 119.703 164.83 119.703C165.465 119.703 166.077 119.6 166.658 119.421L171.727 130.875L150.609 140.503ZM168.699 118.354C170.397 117.039 171.508 114.888 171.508 112.451C171.508 111.069 171.146 109.783 170.528 108.683L183.153 96.8304L173.069 128.232L168.699 118.354ZM146.661 195.268C146.661 197.981 144.486 200.182 141.802 200.182H109.401C106.718 200.182 104.542 197.982 104.542 195.268C104.542 192.555 106.718 190.354 109.401 190.354H141.802C144.485 190.354 146.661 192.555 146.661 195.268ZM141.802 207.962C141.802 210.05 140.128 211.743 138.063 211.743H113.139C111.075 211.743 109.401 210.05 109.401 207.962C109.401 205.875 111.075 204.183 113.139 204.183H138.063C140.128 204.182 141.802 205.874 141.802 207.962ZM115.881 216.519H135.321C135.321 221.947 130.97 225.57 125.601 225.57C120.233 225.57 115.881 221.947 115.881 216.519Z" stroke="#6A44F0" stroke-width="0.796875" mask="url(#path-2-outside-1_2676_5693)"/>
<path d="M146.766 55.8855C144.583 55.7959 142.741 57.5125 142.651 59.7198C142.563 61.9272 144.26 63.7906 146.444 63.881C148.627 63.9715 150.47 62.254 150.559 60.0459C150.648 57.8382 148.95 55.9751 146.766 55.8855ZM173.242 127.454C171.056 127.454 169.285 129.245 169.285 131.455C169.285 133.664 171.057 135.456 173.242 135.456C175.427 135.456 177.198 133.664 177.198 131.455C177.198 129.246 175.427 127.454 173.242 127.454ZM93.0945 60.7248C90.3638 60.7248 88.1486 62.9634 88.1486 65.7256C88.1486 68.4881 90.3638 70.7271 93.0945 70.7271C95.8268 70.7271 98.0413 68.4881 98.0413 65.7256C98.0413 62.9638 95.8268 60.7248 93.0945 60.7248ZM135.154 118.202C131.466 118.202 128.476 121.448 128.476 125.453C128.476 129.459 131.466 132.706 135.154 132.706C138.842 132.706 141.832 129.459 141.832 125.453C141.832 121.448 138.842 118.202 135.154 118.202ZM170.274 47.1837C166.586 47.1837 163.596 50.4311 163.596 54.4351C163.596 58.4406 166.586 61.6872 170.274 61.6872C173.962 61.6872 176.951 58.441 176.951 54.4351C176.951 50.4307 173.961 47.1837 170.274 47.1837ZM91.1308 144.208C87.9522 144.208 85.3735 147.007 85.3735 150.46C85.3735 153.913 87.9522 156.712 91.1308 156.712C94.3086 156.712 96.8872 153.913 96.8872 150.46C96.8876 147.007 94.309 144.208 91.1308 144.208ZM136.637 98.4465C136.637 100.656 134.866 102.447 132.681 102.447C130.495 102.447 128.724 100.656 128.724 98.4465C128.724 96.2368 130.495 94.4456 132.681 94.4456C134.866 94.4452 136.637 96.2368 136.637 98.4465ZM148.015 137.957C145.283 137.957 143.069 140.196 143.069 142.957C143.069 145.72 145.283 147.959 148.015 147.959C150.746 147.959 152.961 145.72 152.961 142.957C152.961 140.196 150.746 137.957 148.015 137.957ZM185.113 87.4438C182.381 87.4438 180.167 89.6828 180.167 92.4446C180.167 95.2064 182.381 97.4454 185.113 97.4454C187.844 97.4454 190.059 95.2064 190.059 92.4446C190.059 89.6828 187.844 87.4438 185.113 87.4438ZM98.0554 33.4297C95.3239 33.4297 93.1094 35.6695 93.1094 38.4316C93.1094 41.1938 95.3239 43.4324 98.0554 43.4324C100.787 43.4324 103.002 41.1938 103.002 38.4316C103.002 35.6695 100.787 33.4297 98.0554 33.4297ZM127.487 153.461C123.8 153.461 120.81 156.708 120.81 160.712C120.81 164.717 123.799 167.965 127.487 167.965C131.174 167.965 134.164 164.718 134.164 160.712C134.164 156.708 131.174 153.461 127.487 153.461ZM66.8932 98.6968C63.7146 98.6968 61.1367 101.495 61.1367 104.948C61.1367 108.402 63.7146 111.2 66.8932 111.2C70.0718 111.2 72.6504 108.402 72.6504 104.948C72.6504 101.495 70.0718 98.6968 66.8932 98.6968Z" fill="#6A44F0"/>
</g>
<defs>
<filter id="filter0_f_2676_5693" x="-460.242" y="-280.258" width="1038.33" height="1206.43" filterUnits="userSpaceOnUse" color-interpolation-filters="sRGB">
<feFlood flood-opacity="0" result="BackgroundImageFix"/>
<feBlend mode="normal" in="SourceGraphic" in2="BackgroundImageFix" result="shape"/>
<feGaussianBlur stdDeviation="99.6094" result="effect1_foregroundBlur_2676_5693"/>
</filter>
<clipPath id="clip0_2676_5693">
<rect width="256" height="256" fill="white"/>
</clipPath>
</defs>
</svg>
